Coordinates
version=1
nRows=15
nColumns=42
inDegrees=yes

Units are S.I. units (second, meters, Newtons, ...)
If the header above contains a line with 'inDegrees', this indicates whether rotational values are in degrees (yes) or radians (no).

endheader
time	pelvis_tilt	pelvis_list	pelvis_rotation	pelvis_tx	pelvis_ty	pelvis_tz	hip_flexion_r	hip_adduction_r	hip_rotation_r	knee_angle_r	knee_adduction_r	knee_angle_r_beta	ankle_angle_r	subtalar_angle_r	mtp_angle_r	hip_flexion_l	hip_adduction_l	hip_rotation_l	knee_angle_l	knee_adduction_l	knee_angle_l_beta	ankle_angle_l	subtalar_angle_l	mtp_angle_l	lumbar_extension	lumbar_bending	lumbar_rotation	arm_flex_r	arm_add_r	arm_rot_r	elbow_flex_r	pro_sup_r	wrist_flex_r	wrist_dev_r	arm_flex_l	arm_add_l	arm_rot_l	elbow_flex_l	pro_sup_l	wrist_flex_l	wrist_dev_l
      0.32000000	      4.51524125	     -2.13927546	     -8.52819941	     -1.35732609	      0.97419109	      0.21826227	    -20.45722572	     -2.55187682	      0.63562057	     17.43098033	      8.46245543	      0.30422800	     16.04558538	      3.50627322	     -8.97452090	     20.59771083	    -11.81285251	    -15.26381077	      9.12888407	     11.96725878	      0.15932908	     -1.69869015	     -6.08177892	     -8.97452090	    -17.73427330	     -2.00826278	     10.60380398	     18.10868529	    -23.44128555	     -7.16638271	     53.45120868	     90.00000001	      0.00000000	      0.00000000	    -15.92905927	     -7.05551883	    -22.70274106	     11.12022362	     90.00000001	      0.00000000	      0.00000000
      0.33000000	      4.81221826	     -1.32721841	     -8.87209608	     -1.33997163	      0.97367767	      0.21732472	    -21.03231285	     -3.85705079	      0.97494338	     18.59254175	      8.45349199	      0.32450107	     15.15292665	      3.30757893	     -8.94306971	     20.22226933	    -10.83416736	    -15.39538311	     10.34433058	     11.79910607	      0.18054263	     -2.71352516	     -6.56512920	     -8.94306971	    -17.71069199	     -3.06450749	     10.61131493	     17.45912250	    -23.37162229	     -7.43217999	     53.66161416	     90.00000001	      0.00000000	      0.00000000	    -16.10478414	     -7.10064347	    -22.77217634	     11.14133277	     90.00000001	      0.00000000	      0.00000000
      0.34000000	      5.11709969	     -0.48788882	     -9.20639006	     -1.32242428	      0.97362652	      0.21627922	    -21.47569810	     -5.19303415	      1.24274083	     19.95385453	      8.44583084	      0.34826046	     13.87611467	      3.07764685	     -8.92173332	     19.79315011	     -9.82232263	    -15.48778246	     11.58056211	     11.61959277	      0.20211894	     -3.83198183	     -6.97757730	     -8.92173332	    -17.67566520	     -4.13492056	     10.61993009	     16.69060563	    -23.28711943	     -7.71225291	     53.72253554	     90.00000001	      0.00000000	      0.00000000	    -16.18533438	     -7.15051332	    -22.84064711	     11.18524735	     90.00000001	      0.00000000	      0.00000000
      0.35000000	      5.38710680	      0.38862682	     -9.52140104	     -1.30480868	      0.97404233	      0.21515866	    -21.68376670	     -6.53288334	      1.44142253	     21.60193820	      8.41240591	      0.37702495	     12.26151941	      2.68688490	     -8.90096518	     19.37087701	     -8.76839694	    -15.51839193	     12.80011565	     11.43402830	      0.22340416	     -5.03573195	     -7.37854448	     -8.90096518	    -17.59025430	     -5.23253070	     10.60748795	     15.78583823	    -23.11390619	     -8.07027120	     53.70418474	     90.00000001	      0.00000000	      0.00000000	    -16.15265241	     -7.22415768	    -22.92645175	     11.20600339	     90.00000001	      0.00000000	      0.00000000
      0.36000000	      5.56585674	      1.24965823	     -9.74518670	     -1.28728174	      0.97499294	      0.21403529	    -21.63955513	     -7.74066452	      1.93515923	     23.41348455	      8.45149221	      0.40864239	     10.00424805	      1.08222328	     -8.79733698	     18.94051428	     -7.66685573	    -14.80253950	     13.70342514	     11.34691565	      0.23916989	     -6.66947427	     -9.14409924	     -8.79733698	    -17.43604036	     -6.29247221	     10.61528568	     14.62107615	    -22.62034221	     -9.19367043	     53.79791890	     90.00000001	      0.00000000	      0.00000000	    -15.63403548	     -7.40162206	    -23.81544754	     10.58579609	     90.00000001	      0.00000000	      0.00000000
      0.37000000	      5.77403419	      2.06343781	     -9.90085021	     -1.26990125	      0.97634222	      0.21273957	    -21.30296748	     -8.89733080	      1.87834983	     25.75748953	      8.35909022	      0.44955300	      7.48953522	      0.34695682	     -8.75998257	     18.62629004	     -6.62733633	    -14.61299893	     15.03327000	     11.15332651	      0.26238006	     -7.34994046	     -9.42069095	     -8.75998257	    -17.33960102	     -7.26344064	     10.42489755	     13.74454384	    -22.32569689	     -9.33859270	     53.27311395	     90.00000001	      0.00000000	      0.00000000	    -15.38443943	     -7.50174455	    -24.08897266	     10.66059741	     90.00000001	      0.00000000	      0.00000000
      0.38000000	      6.01901222	      2.80157082	    -10.04189172	     -1.25269606	      0.97819220	      0.21141230	    -20.74460533	     -9.96995386	      1.80368726	     28.41514553	      8.25202935	      0.49593785	      4.44327273	     -0.28170409	     -8.73751730	     18.21111958	     -5.62391151	    -14.32624178	     16.28622069	     10.98969361	      0.28424817	     -7.37919325	     -9.72366598	     -8.73751730	    -17.32125814	     -8.14368544	     10.28197622	     12.77209650	    -22.01508983	     -9.52304487	     52.68549127	     90.00000001	      0.00000000	      0.00000000	    -15.04581630	     -7.61967342	    -24.20779032	     10.82709192	     90.00000001	      0.00000000	      0.00000000
      0.39000000	      6.17544131	      3.41973870	    -10.00902741	     -1.23582386	      0.98048832	      0.20997593	    -19.95928725	    -10.80117046	      2.35226377	     31.12830433	      8.47854930	      0.54329140	      0.33620159	     -3.32532713	     -8.66104581	     17.82253896	     -4.65114198	    -13.45649830	     17.33709368	     10.91377235	      0.30258937	     -7.73349293	    -10.80948834	     -8.66104581	    -17.28120443	     -8.84139410	     10.00566774	     12.03714835	    -21.38461755	    -10.35523219	     51.45829330	     90.00000001	      0.00000000	      0.00000000	    -14.19354837	     -7.78804611	    -25.32505490	     10.30785717	     90.00000001	      0.00000000	      0.00000000
      0.40000000	      6.42544656	      4.08457938	    -10.01382284	     -1.21915543	      0.98301521	      0.20834277	    -18.89778675	    -11.77828235	      2.11111155	     34.34865087	      8.34391980	      0.59949705	     -3.48456669	     -3.95543209	     -8.64509380	     17.23831705	     -3.54668485	    -12.94483850	     18.24213184	     10.73494203	      0.31838526	     -7.21491049	    -11.17369437	     -8.64509380	    -17.36387662	     -9.55830158	      9.72488139	     11.01786046	    -21.06502094	    -10.32492759	     50.73030692	     90.00000001	      0.00000000	      0.00000000	    -13.59528090	     -7.91793141	    -25.55149898	     10.46521172	     90.00000001	      0.00000000	      0.00000000
      0.41000000	      6.60958056	      4.63052491	     -9.89466588	     -1.20288904	      0.98571258	      0.20663042	    -17.57150110	    -12.55626356	      1.86784556	     37.72118523	      8.14287732	      0.65835888	     -7.68761079	     -5.08088323	     -8.62656616	     16.65474387	     -2.51310142	    -12.37775011	     19.01142941	     10.54530752	      0.33181204	     -6.68850075	    -11.49636923	     -8.62656616	    -17.45518984	    -10.09361907	      9.34043624	     10.14606975	    -20.66711859	    -10.42236515	     49.68644398	     90.00000001	      0.00000000	      0.00000000	    -12.85807138	     -8.05573460	    -25.83667595	     10.60157279	     90.00000001	      0.00000000	      0.00000000
      0.42000000	      6.80047330	      4.90500188	     -9.71064131	     -1.18707006	      0.98870956	      0.20500330	    -16.21721028	    -12.97467123	      2.54252481	     40.92131838	      8.40795934	      0.71421174	    -12.50835874	     -8.30371480	     -8.55856953	     15.89369578	     -1.75694270	    -11.75319852	     19.54069194	     10.43236151	      0.34104941	     -6.13390191	    -11.88958409	     -8.55856953	    -17.63240941	    -10.32119085	      8.90323058	      9.76096834	    -20.08366428	    -10.80417547	     47.74088531	     90.00000001	      0.00000000	      0.00000000	    -11.87280304	     -8.12779714	    -27.05243417	     10.47710343	     90.00000001	      0.00000000	      0.00000000
      0.43000000	      6.91140782	      5.18024273	     -9.48622027	     -1.17176432	      0.99150072	      0.20335902	    -14.49617819	    -13.38334877	      2.32553127	     44.43231508	      8.05299594	      0.77549019	    -16.19462505	     -8.99970449	     -8.52853300	     15.14692097	     -0.98338563	    -11.37799208	     19.91306598	     10.21508442	      0.34754857	     -5.36017956	    -11.89827434	     -8.52853300	    -17.78748389	    -10.50745531	      8.46050463	      8.96749166	    -19.68739929	    -10.72083655	     46.60883237	     90.00000001	      0.00000000	      0.00000000	    -10.95192198	     -8.24806142	    -27.48185771	     10.67890745	     90.00000001	      0.00000000	      0.00000000
      0.44000000	      6.92724817	      5.28453623	     -9.20431460	     -1.15703948	      0.99418165	      0.20192721	    -12.57617530	    -13.53863695	      2.24609314	     47.89968053	      7.69506705	      0.83600714	    -19.33684779	     -9.66616463	     -8.49521823	     14.43537717	     -0.45172211	    -11.13509338	     20.20423021	     10.01381951	      0.35263034	     -4.41049229	    -11.57176622	     -8.49521823	    -17.91427151	    -10.49575521	      7.99695302	      8.37085063	    -19.25630700	    -10.64226164	     45.13911880	     90.00000001	      0.00000000	      0.00000000	    -10.02143120	     -8.35969284	    -27.70352094	     11.02054637	     90.00000001	      0.00000000	      0.00000000
      0.45000000	      6.82798001	      5.20889318	     -8.86476981	     -1.14289244	      0.99668608	      0.20072428	    -10.46353004	    -13.43072504	      2.23618765	     51.28267404	      7.34623543	      0.89505151	    -21.72629631	    -10.40934321	     -8.46522042	     13.76535276	     -0.18788725	    -10.88974243	     20.38789286	      9.89116601	      0.35583586	     -3.44212613	    -11.17828527	     -8.46522042	    -17.99190006	    -10.28087650	      7.51480550	      7.87554036	    -18.78808551	    -10.55398066	     43.48844033	     90.00000001	      0.00000000	      0.00000000	     -9.02435221	     -8.47539454	    -27.85542436	     11.40146551	     90.00000001	      0.00000000	      0.00000000
      0.46000000	      6.67738997	      4.97871263	     -8.60755540	     -1.12925848	      0.99908041	      0.19997347	     -8.22536699	    -13.07587144	      2.40510885	     54.52033624	      6.97533182	      0.95155938	    -22.87742407	    -10.78099182	     -8.44664576	     13.02209873	     -0.19128599	    -10.69615028	     20.35378892	      9.87419481	      0.35524063	     -2.45584041	    -10.77402253	     -8.44664576	    -18.05290168	     -9.94450112	      7.22666667	      7.22651496	    -18.34992460	    -10.40880709	     42.16742655	     90.00000001	      0.00000000	      0.00000000	     -7.98359151	     -8.63532721	    -27.84774504	     12.00064032	     90.00000001	      0.00000000	      0.00000000
